<?xml version="1.0" encoding="UTF-8" standalone="no"?>
<svg
   xmlns:dc="http://purl.org/dc/elements/1.1/"
   xmlns:cc="http://creativecommons.org/ns#"
   xmlns:rdf="http://www.w3.org/1999/02/22-rdf-syntax-ns#"
   xmlns:svg="http://www.w3.org/2000/svg"
   xmlns="http://www.w3.org/2000/svg"
   id="svg8"
   version="1.1"
   viewBox="0 0 26.458333 26.458334"
   height="100"
   width="100">
  <defs
     id="defs2" />
  <metadata
     id="metadata5">
    <rdf:RDF>
      <cc:Work
         rdf:about="">
        <dc:format>image/svg+xml</dc:format>
        <dc:type
           rdf:resource="http://purl.org/dc/dcmitype/StillImage" />
        <dc:title></dc:title>
      </cc:Work>
    </rdf:RDF>
  </metadata>
  <g
     transform="translate(0,0)"
     id="layer1">
    <path
       style="fill:#000000;stroke-width:0.11135459"
       d="m 4.9038721,22.342493 c -0.078674,-0.352201 -0.049854,-0.543227 0.1181866,-0.783214 0.2605299,-0.372075 0.9521846,-0.602525 1.2915103,-0.430323 0.1730423,0.08784 0.2646628,0.05222 0.4138615,-0.16086 0.1597812,-0.228191 0.1547284,-0.306404 -0.030597,-0.47095 L 6.4746357,20.299811 7.2605516,19.260569 c 0.4322286,-0.571608 0.866823,-1.166122 0.9657349,-1.321156 0.2676941,-0.419442 0.7068777,-1.013013 1.2917574,-1.746316 1.0985041,-1.376977 2.1860791,-2.871111 2.2825651,-3.135882 0.05527,-0.151804 0.28461,-0.432965 0.509642,-0.624806 0.327614,-0.279397 0.465969,-0.481975 0.694816,-1.017406 0.407086,-0.952211 0.410587,-1.002766 0.101038,-1.4620816 -0.352442,-0.5229582 -0.552126,-1.4147271 -0.435912,-1.9466825 0.04924,-0.2253147 0.253166,-0.6434214 0.453195,-0.9290925 0.525906,-0.7510723 1.16277,-1.0190199 2.10032,-0.8836524 0.39404,0.056891 0.929782,0.084466 1.19055,0.061297 0.45565,-0.040493 0.486427,-0.063648 0.791148,-0.5953182 0.199348,-0.34781 0.33424,-0.7654479 0.363328,-1.1249244 0.05256,-0.6492709 0.235296,-0.9721875 0.631763,-1.116417 0.763298,-0.2776904 1.539653,0.8100923 1.063499,1.4901114 -0.06733,0.09616 -0.371559,0.3000698 -0.67607,0.4531295 -0.397573,0.1998553 -0.694064,0.4523963 -1.051806,0.8959376 l -0.498148,0.6176315 0.225584,0.3130059 c 0.309991,0.430108 0.528849,0.5618808 1.115118,0.6714331 0.703477,0.1314135 1.517383,-0.1651162 1.881839,-0.6856136 0.343004,-0.4898611 0.468303,-1.0359765 0.355849,-1.5509613 -0.08568,-0.3923372 0.09147,-0.8090476 0.337934,-0.7949061 0.07334,0.00423 0.217528,0.2569349 0.3204,0.5616584 0.160063,0.4740856 0.153732,0.6015941 -0.04393,0.8838821 -0.127673,0.182335 -0.192129,0.3830051 -0.144207,0.4486183 0.04778,0.065316 0.130603,0.056168 0.18414,-0.020291 0.05357,-0.076509 0.155464,-0.1357251 0.226522,-0.1316395 0.16423,0.0094 0.112697,1.5219651 -0.07069,2.0757961 -0.135122,0.4080643 -0.158724,0.4243531 -0.92337,0.6369348 -0.929787,0.2584946 -1.227677,0.5564455 -0.832797,0.8329434 0.166149,0.116339 0.416884,0.147842 0.711368,0.08939 0.319395,-0.0634 0.463385,-0.0415 0.483682,0.07357 0.01589,0.09011 -0.299629,0.664065 -0.701182,1.275427 -0.565121,0.860426 -0.840854,1.195634 -1.220794,1.483353 -0.269897,0.204483 -0.697021,0.528833 -0.949168,0.720781 -0.252188,0.191919 -0.643827,0.431576 -0.870414,0.532503 -0.503847,0.224446 -2.460952,0.610981 -2.60011,0.513541 -0.188675,-0.132111 0.104993,-0.3654 0.617445,-0.490468 0.467319,-0.114065 0.53408,-0.167044 0.774409,-0.614388 0.480569,-0.894544 0.292821,-1.521811 -0.653889,-2.184705 -0.706748,-0.49487 -1.096916,-0.439522 -1.775803,0.251897 -0.282726,0.28801 -0.60213,0.660795 -0.709715,0.828459 -0.107617,0.167641 -0.296867,0.448029 -0.420638,0.623049 -0.556226,0.785656 -0.813603,1.160464 -0.993592,1.445323 -0.106792,0.168206 -0.33036,0.48575 -0.497454,0.705207 -0.167006,0.219506 -0.555544,0.80386 -0.863874,1.298248 -0.7978422,1.280307 -0.8337366,1.33157 -1.1668789,1.666877 -0.1764619,0.177568 -0.332018,0.444706 -0.3769106,0.647075 -0.063557,0.28668 -0.1529091,0.396452 -0.5310695,0.652444 -0.4267462,0.288907 -0.4590187,0.333916 -0.5259245,0.733664 -0.065863,0.393324 -0.1092025,0.456318 -0.5675452,0.824486 -0.5187318,0.416928 -0.6244675,0.704167 -0.3340699,0.907506 0.070201,0.04915 0.1029735,0.22227 0.072848,0.38472 -0.0807,0.435209 -0.5978732,0.742968 -0.8968146,0.533647 C 5.5516338,22.931542 5.3514167,22.849335 5.2294007,22.834655 5.0589706,22.814201 4.9833796,22.699989 4.9034486,22.342208 Z M 20.830636,8.6528071 c 0.120701,-0.2698382 -0.162647,-0.5077572 -0.326311,-0.2740203 -0.09141,0.1305482 -0.07386,0.2301365 0.0567,0.3215531 0.130532,0.091399 0.214071,0.076648 0.269618,-0.047541 z"
       id="path828" />
  </g>
</svg>
