<?xml version="1.0" encoding="UTF-8" standalone="no"?>
<svg
   xmlns:dc="http://purl.org/dc/elements/1.1/"
   xmlns:cc="http://creativecommons.org/ns#"
   xmlns:rdf="http://www.w3.org/1999/02/22-rdf-syntax-ns#"
   xmlns:svg="http://www.w3.org/2000/svg"
   xmlns="http://www.w3.org/2000/svg"
   width="100"
   height="100"
   viewBox="0 0 26.458333 26.458334"
   version="1.1"
   id="svg8">
  <defs
     id="defs2" />
  <metadata
     id="metadata5">
    <rdf:RDF>
      <cc:Work
         rdf:about="">
        <dc:format>image/svg+xml</dc:format>
        <dc:type
           rdf:resource="http://purl.org/dc/dcmitype/StillImage" />
        <dc:title></dc:title>
      </cc:Work>
    </rdf:RDF>
  </metadata>
  <g
     transform="translate(0.03080712,0.03080618)"
     id="g929">
    <path
       style="fill:#000000;stroke:none;stroke-width:0.1438012px;stroke-linecap:butt;stroke-linejoin:round;stroke-opacity:1"
       d="M 5.7345008,2.0029137 C 3.9652268,1.9740755 2.2752695,2.6958989 1.399365,4.6595991 1.1818112,6.6813734 2.4167636,8.0570848 3.326896,9.5776452 3.3700019,9.6496621 3.412042,9.7219367 3.453503,9.794686 L 4.6348263,5.172746 3.5051796,6.8672162 3.3222451,6.3447676 2.7863604,4.8135948 C 2.6039717,4.2925042 5.8863486,2.3762716 7.3054643,4.197095 5.8240014,8.2352293 6.3879835,9.366002 6.4124956,11.165145 5.9508833,11.235179 5.687029,11.511126 5.4244422,11.82402 0.98031378,17.314932 13.061458,17.768226 8.4020381,11.649353 8.2098453,11.396961 7.7635253,11.262124 7.52974,11.245244 7.732895,8.0130936 8.4235461,5.1374424 8.825785,4.7650191 10.192325,2.5789517 7.0203805,2.0361731 5.7345008,2.0029137 Z M 7.0227943,12.476176 c 0.6890272,-7e-6 1.2479928,0.55896 1.2479859,1.247986 5.8e-6,0.689027 -0.5589595,1.247475 -1.2479859,1.247469 -0.6890257,5e-6 -1.2474746,-0.558442 -1.2474691,-1.247469 -6.9e-6,-0.689025 0.5584426,-1.247992 1.2474691,-1.247986 z"
       id="path892" />
    <path
       id="path875"
       style="fill:none;stroke:#000000;stroke-width:0.5291667;stroke-linecap:round;stroke-linejoin:miter;stroke-miterlimit:4;stroke-dasharray:none;stroke-opacity:1"
       d="m 7.1242985,15.68112 c -0.1546342,0.08077 -0.2091148,0.28657 -0.2882105,0.437409 -0.078155,0.203605 -0.174104,0.423745 -0.1290541,0.645481 0.1191936,0.163326 0.3585686,0.02998 0.5100616,-0.02144 0.2570589,-0.121802 0.5226432,-0.265644 0.6947707,-0.498918 0.085688,-0.158999 -0.071764,-0.320508 -0.1575473,-0.445426 -0.1798962,-0.203349 -0.4150866,-0.4046 -0.6991495,-0.415008 -0.2311015,0.01045 -0.2483875,0.282489 -0.2869239,0.456706 -0.048589,0.311893 -0.088879,0.632497 -0.042717,0.946865 0.078974,0.142396 0.3160573,0.0917 0.4640692,0.139298 0.2301851,0.03767 0.5334904,0.01597 0.6398127,-0.230221 0.1564495,-0.19798 -0.048445,-0.362487 -0.2188455,-0.439794 -0.2143835,-0.07134 -0.2426448,-0.2868 -0.3501075,-0.450406 -0.1601733,-0.17124 -0.4111308,-0.03352 -0.5538747,0.09042 -0.3422779,0.299429 -0.6004864,0.700354 -0.7281704,1.137058 -0.081251,0.215983 -0.00351,0.431716 0.07947,0.63168 0.06404,0.189627 0.1154838,0.462422 -0.08906,0.58527 -0.2671969,0.144107 -0.6005257,0.169674 -0.8168713,0.403759 -0.1411101,0.139909 -0.2274557,0.325196 -0.2783149,0.515061 M 16.691213,15.256933 c -0.485324,-0.02604 -0.204338,-0.667054 0.04328,-0.80664 0.671038,-0.378267 1.404599,0.257566 1.569998,0.893206 0.295858,1.137011 -0.665011,2.164345 -1.743128,2.333354 -1.582182,0.248029 -2.937901,-1.074836 -3.096712,-2.593051 -0.21167,-2.023541 1.485094,-3.716818 3.442973,-3.860069 2.463792,-0.180266 4.498404,1.895458 4.623427,4.292896 0.151419,2.90362 -2.305861,5.281514 -5.142819,5.386784 -3.343257,0.124057 -6.065578,-2.716285 -6.150141,-5.992741 -0.09763,-3.782799 3.126724,-6.8502793 6.842664,-6.9134983 4.222288,-0.071834 7.635426,3.5371733 7.676855,7.6925863 0.04648,4.661746 -3.947631,8.420899 -8.542509,8.440213 -5.101185,0.02144 -9.2066138,-4.358097 -9.2035698,-9.392432" />
  </g>
</svg>
