<?xml version="1.0" encoding="UTF-8" standalone="no"?>
<svg
   xmlns:dc="http://purl.org/dc/elements/1.1/"
   xmlns:cc="http://creativecommons.org/ns#"
   xmlns:rdf="http://www.w3.org/1999/02/22-rdf-syntax-ns#"
   xmlns:svg="http://www.w3.org/2000/svg"
   xmlns="http://www.w3.org/2000/svg"
   id="svg8"
   version="1.1"
   viewBox="0 0 26.458333 26.458334"
   height="100"
   width="100">
  <defs
     id="defs2" />
  <metadata
     id="metadata5">
    <rdf:RDF>
      <cc:Work
         rdf:about="">
        <dc:format>image/svg+xml</dc:format>
        <dc:type
           rdf:resource="http://purl.org/dc/dcmitype/StillImage" />
        <dc:title></dc:title>
      </cc:Work>
    </rdf:RDF>
  </metadata>
  <g
     transform="translate(0,-270.54165)"
     id="layer1">
    <path
       id="path837"
       d="m 9.8028337,295.41165 c -0.952949,-0.18925 -1.845116,-0.91314 -3.077876,-2.49736 -0.283256,-0.36401 -0.677843,-0.89605 -0.876862,-1.18231 -0.421004,-0.60554 -0.702871,-0.82362 -1.064535,-0.82362 -0.187761,0 -0.258981,0.0327 -0.433699,0.19886 -0.251226,0.23899 -0.309716,0.43084 -0.21962,0.72037 0.09845,0.31638 0.09671,0.56054 -0.0045,0.62513 -0.06745,0.0431 -0.145097,0.0116 -0.3588397,-0.14527 -0.560374,-0.41135 -1.084932,-1.2286 -1.337829,-2.08431 -0.242478,-0.82045 -0.266492,-1.08317 -0.269799,-2.95172 -0.0027,-1.55077 -0.01452,-1.79842 -0.09678,-2.03397 -0.125309,-0.35889 -0.334765,-0.55358 -0.63154,-0.58703 -0.378465,-0.0427 -0.52789898,0.0708 -0.78040398,0.59246 -0.285483,0.58981 -0.37408,0.58968 -0.555393,-8e-4 -0.07204,-0.23462 -0.09662,-0.47953 -0.09522000322,-0.94877 C 0.00213702,283.55298 0.08515702,283.1865 0.39826402,282.53473 c 0.191431,-0.39849 0.297047,-0.52764 1.09919798,-1.34409 1.141152,-1.16149 1.299207,-1.34593 1.786045,-2.08419 0.327869,-0.49719 0.349157,-0.74277 0.08874,-1.02377 -0.170846,-0.18434 -0.344674,-0.17972 -0.690916,0.0184 -0.251325,0.1438 -0.286198,0.15131 -0.359964,0.0775 -0.103166,-0.10317 -0.07059,-0.19032 0.207526,-0.55518 0.422781,-0.55465 1.13372,-1.07515 1.7619787,-1.28998 0.515107,-0.17615 1.449169,-0.42493 1.95978,-0.52197 0.222672,-0.0423 0.474312,-0.11286 0.559202,-0.15676 0.187887,-0.0972 0.287453,-0.31891 0.265019,-0.59023 -0.01345,-0.16253 -0.05229,-0.2266 -0.195863,-0.32303 -0.09851,-0.0662 -0.25268,-0.12066 -0.34261,-0.1211 -0.08993,-4e-4 -0.196627,-0.0218 -0.2371,-0.0474 -0.112798,-0.0714 0.143536,-0.2997 0.423319,-0.37698 0.286372,-0.0791 1.213209,0.0346 2.199165,0.26981 0.755743,0.18028 0.957073,0.18925 1.2461753,0.0556 0.586567,-0.27125 0.756775,-0.73678 0.446291,-1.22063 -0.28133,-0.43841 -0.8873713,-0.72405 -1.6322493,-0.7693 -0.801627,-0.0487 -0.890615,-0.0967 -0.524917,-0.28328 0.33443,-0.17062 1.013826,-0.23678 1.6844873,-0.16404 0.746123,0.0809 1.290049,0.22729 1.879835,0.50583 1.279064,0.60408 2.20905,1.44595 3.156509,2.85744 0.639757,0.95308 1.604521,2.0391 2.099601,2.36349 0.23803,0.15597 0.3393,0.46512 0.42751,1.30507 0.0782,0.74486 0.14133,0.99311 0.3916,1.54045 0.28347,0.61997 0.68931,1.87626 0.68931,2.1338 0,0.0482 -0.0692,0.21636 -0.1538,0.37371 -0.0846,0.15735 -0.1947,0.4284 -0.24469,0.60234 -0.1261,0.43871 -0.20278,0.5346 -0.50872,0.63622 -0.46058,0.15298 -0.9982,0.078 -0.906,-0.12635 0.0737,-0.16332 0.0841,-0.58237 0.0195,-0.78408 -0.0972,-0.30351 -0.614,-1.05412 -0.971525,-1.41101 -0.49706,-0.49617 -1.218769,-0.87509 -1.521853,-0.79903 -0.191415,0.0481 -0.684545,0.66865 -0.938241,1.18078 -0.191903,0.38739 -0.22015,0.49222 -0.241809,0.8974 -0.02237,0.41857 -0.01259,0.48089 0.111675,0.711 0.11136,0.20622 0.122265,0.25756 0.05981,0.28153 -0.206089,0.0791 -0.864839,-0.29264 -1.007502,-0.56852 -0.128845,-0.24916 -0.147936,-0.6561 -0.0542,-1.1553 0.14998,-0.7987 0.107549,-1.07226 -0.21347,-1.3763 -0.105419,-0.0998 -0.261195,-0.16493 -0.526997,-0.22018 -0.373618,-0.0777 -0.703385,-0.21141 -0.703002,-0.28512 1.03e-4,-0.021 0.112774,-0.084 0.250369,-0.14001 0.363201,-0.14784 0.524271,-0.28261 0.61813,-0.51718 0.09652,-0.24123 0.06963,-0.46279 -0.104304,-0.85942 -0.294995,-0.67269 -1.076481,-0.95675 -2.0201293,-0.73429 -0.57695,0.13602 -0.894477,0.3204 -1.362065,0.79092 -0.351852,0.35405 -0.47445,0.52368 -0.672029,0.92983 -0.382935,0.78717 -0.476788,1.28626 -0.474122,2.52128 0.0018,0.85485 0.02176,1.11876 0.118322,1.56811 0.296914,1.38166 0.873307,2.47354 1.776661,3.3656 1.3175783,1.3011 3.1373763,1.96709 5.3835023,1.97018 1.152436,0.002 1.956549,-0.13985 2.876409,-0.50593 1.18273,-0.4707 2.36812,-1.37539 3.0997,-2.3657 0.12849,-0.17394 0.24585,-0.32811 0.26078,-0.34261 0.0862,-0.0837 0.34596,-0.53567 0.60918,-1.05995 0.84662,-1.68628 1.23011,-3.94034 1.02261,-6.01069 -0.13089,-1.30599 -0.28513,-1.90189 -0.65348,-2.52466 -0.29472,-0.49829 -0.60381,-0.84961 -1.00376,-1.14091 -0.33109,-0.24116 -0.8,-0.4239 -0.94496,-0.36828 -0.15451,0.0593 -0.20466,0.29661 -0.11325,0.53597 0.0451,0.11807 0.082,0.24352 0.082,0.27879 0,0.11941 -0.19029,0.065 -0.34593,-0.0989 -0.19832,-0.20886 -0.5939,-0.41057 -0.87989,-0.44865 -0.16059,-0.0214 -0.34263,0.008 -0.64536,0.1058 -0.23193,0.0746 -0.44279,0.13589 -0.46858,0.13626 -0.0952,0.001 0.0156,-0.5723 0.16925,-0.87672 0.42422,-0.84038 1.31702,-1.43022 2.42504,-1.60213 0.43628,-0.0677 0.58594,-0.0423 0.48288,0.0819 -0.0358,0.0431 -0.10963,0.0784 -0.16406,0.0784 -0.14072,0 -0.30981,0.18734 -0.30981,0.34323 0,0.12691 0.009,0.13074 0.22402,0.0923 0.12321,-0.022 0.36633,-0.0382 0.54027,-0.036 0.27115,0.004 0.38221,0.0392 0.77875,0.25028 0.30114,0.1603 0.52791,0.2462 0.64999,0.2462 0.18749,0 0.18749,0 0.0778,-0.17753 -0.14988,-0.24251 -0.14638,-0.36826 0.009,-0.31918 0.20665,0.0653 0.45148,0.28616 0.71766,0.6473 0.5517,0.74854 0.68418,1.04783 0.7733,1.74694 0.0568,0.44532 0.26942,0.79064 0.48689,0.79064 0.0665,0 0.17005,-0.24229 0.17005,-0.3978 0,-0.31105 0.2672,-0.0614 0.49344,0.46114 0.22012,0.50835 0.2602,0.83181 0.22045,1.7794 -0.0389,0.92753 0.003,1.29396 0.16292,1.4106 0.14503,0.10605 0.28059,0.08 0.33551,-0.0644 0.0618,-0.16266 0.19116,-0.17136 0.24041,-0.0162 0.0584,0.18409 0.0317,0.93479 -0.0534,1.50167 -0.0887,0.59039 -0.17444,1.01137 -0.3685,1.80885 -0.15108,0.62086 -0.14051,0.96564 0.0365,1.19068 0.16958,0.2156 0.38705,0.15948 0.62988,-0.16254 0.10918,-0.14478 0.22177,-0.271 0.25019,-0.28047 0.0995,-0.0332 0.11353,0.23533 0.0327,0.62321 -0.0913,0.43807 -0.491,1.33167 -0.57294,1.28103 -0.0299,-0.0185 -0.0367,-0.006 -0.0156,0.0277 0.0916,0.14824 -0.29728,0.55694 -1.45187,1.52579 -0.54815,0.45997 -0.79283,0.74939 -1.02762,1.2155 -0.2233,0.44331 -0.23539,0.70543 -0.0385,0.83444 0.13069,0.0856 0.15779,0.0857 0.47957,0.001 0.18758,-0.0492 0.36244,-0.0762 0.38858,-0.0601 0.1075,0.0664 0.0325,0.24197 -0.22289,0.52137 -0.33506,0.3666 -0.70261,0.58682 -1.93778,1.16101 -0.53323,0.24788 -1.11746,0.55627 -1.29827,0.6853 -0.5071,0.36185 -0.6792,0.74369 -0.44206,0.98083 0.0923,0.0924 0.16134,0.10721 0.42824,0.0922 0.3816,-0.0214 0.46977,0.0545 0.35128,0.30255 -0.16145,0.33794 -0.96563,0.69966 -1.82441,0.82062 -0.5413,0.0762 -1.00358,0.018 -2.17137,-0.27361 -0.952136,-0.23775 -1.147143,-0.25128 -1.457342,-0.10112 -0.259635,0.12569 -0.352536,0.30463 -0.328669,0.63306 0.01548,0.21291 0.03464,0.23854 0.291182,0.3894 0.388474,0.22845 0.426191,0.27391 0.317447,0.38266 -0.07077,0.0708 -0.19249,0.0889 -0.603898,0.0898 -0.636418,10e-4 -0.911574,-0.0783 -2.23458,-0.64756 -1.367614,-0.58843 -1.634354,-0.66485 -2.320461,-0.66485 -0.477629,0 -0.577469,0.0149 -0.672045,0.10041 -0.2246743,0.2031 -0.1134093,0.61854 0.234271,0.87471 0.191668,0.14122 0.233657,0.28506 0.09837,0.33697 -0.104266,0.04 -0.125871,0.0381 -0.5717033,-0.0504 z"
       style="fill:#ffffff;stroke-width:0.05270931" />
  </g>
</svg>
