<?xml version="1.0" encoding="UTF-8" standalone="no"?>
<svg
   xmlns:dc="http://purl.org/dc/elements/1.1/"
   xmlns:cc="http://creativecommons.org/ns#"
   xmlns:rdf="http://www.w3.org/1999/02/22-rdf-syntax-ns#"
   xmlns:svg="http://www.w3.org/2000/svg"
   xmlns="http://www.w3.org/2000/svg"
   xmlns:sodipodi="http://sodipodi.sourceforge.net/DTD/sodipodi-0.dtd"
   xmlns:inkscape="http://www.inkscape.org/namespaces/inkscape"
   version="1.1"
   x="0px"
   y="0px"
   viewBox="0 0 64 80"
   style="enable-background:new 0 0 64 64;"
   xml:space="preserve"
   id="svg12"
   sodipodi:docname="noun_Sword_1949847.svg"
   inkscape:version="0.92.3 (2405546, 2018-03-11)"><metadata
     id="metadata18"><rdf:RDF><cc:Work
         rdf:about=""><dc:format>image/svg+xml</dc:format><dc:type
           rdf:resource="http://purl.org/dc/dcmitype/StillImage" /></cc:Work></rdf:RDF></metadata><defs
     id="defs16" /><sodipodi:namedview
     pagecolor="#ffffff"
     bordercolor="#666666"
     borderopacity="1"
     objecttolerance="10"
     gridtolerance="10"
     guidetolerance="10"
     inkscape:pageopacity="0"
     inkscape:pageshadow="2"
     inkscape:window-width="1920"
     inkscape:window-height="1017"
     id="namedview14"
     showgrid="false"
     inkscape:zoom="5.9"
     inkscape:cx="24.723414"
     inkscape:cy="40.242015"
     inkscape:window-x="-8"
     inkscape:window-y="-8"
     inkscape:window-maximized="1"
     inkscape:current-layer="svg12" /><g
     id="g6"
     style="fill:#ffffff"
     transform="matrix(-0.28328724,-0.95903511,-0.95903511,0.28328724,72.009787,60.984742)"><path
       d="M 59.944,6.554 C 59.965,6.37 60,6.19 60,6 60,3.243 57.757,1 55,1 c -2.757,0 -5,2.243 -5,5 0,0.611 0.126,1.189 0.327,1.73 -2.026,1.076 -3.7,2.779 -4.726,4.832 -0.361,0.723 -0.644,1.486 -0.839,2.27 l -0.116,0.465 C 44.571,15.596 44.478,15.89 44.384,16.182 42.349,15.409 40.175,15 38,15 h -1 c -4.963,0 -9,4.037 -9,9 h 2 c 0,-3.859 3.141,-7 7,-7 h 1 c 1.916,0 3.83,0.362 5.625,1.038 -0.258,0.521 -0.539,1.031 -0.864,1.518 l -0.593,0.89 v 0 c -2.531,3.797 -5.964,7 -9.925,9.265 l -1.877,1.071 1.946,1.945 -0.229,0.114 c -1.775,0.888 -3.388,2.05 -4.79,3.452 L 26.586,37 l 2,2 -3.879,3.879 C 24.469,43.117 24,42.924 24,42.586 V 40 h -1 c -2.2,0 -4.278,1.069 -5.558,2.86 l -3.569,4.998 C 10.848,52.092 7.022,55.549 2.504,58.131 l -1.482,0.848 2.477,1.485 C 6.263,62.123 9.427,63 12.649,63 c 3.015,0 6.002,-0.773 8.639,-2.238 3.53,-1.961 6.768,-4.403 9.623,-7.259 l 7.246,-7.246 c 0.842,-0.841 1.257,-2.003 1.14,-3.187 -0.08,-0.81 -0.402,-1.562 -0.915,-2.166 l 1.747,-2.097 c 1.59,-1.909 3.704,-3.235 6.113,-3.838 l 1.048,-0.262 -0.524,-1.572 c -0.474,-1.423 -0.532,-2.944 -0.169,-4.4 0.221,-0.88 0.587,-1.708 1.088,-2.46 l 1.147,-1.721 v 0 l 1.196,-1.793 c 0.322,-0.483 0.686,-0.937 1.067,-1.376 1.324,0.391 2.697,0.615 4.077,0.615 2.061,0 4.078,-0.836 5.535,-2.293 C 62.164,18.25 63,16.232 63,14.172 63,11.331 61.927,8.658 59.944,6.554 Z M 55,3 c 1.654,0 3,1.346 3,3 0,1.654 -1.346,3 -3,3 -1.654,0 -3,-1.346 -3,-3 0,-1.654 1.346,-3 3,-3 z m -8.299,12.317 c 0.161,-0.643 0.393,-1.27 0.688,-1.861 0.861,-1.723 2.28,-3.145 3.994,-4.022 0.693,0.729 1.594,1.257 2.617,1.465 v 1.421 c 0,0.945 -0.223,1.891 -0.646,2.734 -0.74,1.481 -1.704,2.826 -2.853,4.015 -0.3,-0.121 -0.602,-0.237 -0.891,-0.382 l -3.384,-1.692 c 0.135,-0.399 0.256,-0.802 0.359,-1.213 z m -9.958,29.526 -7.246,7.246 c -2.724,2.724 -5.812,5.054 -9.18,6.925 -4.7,2.61 -10.685,2.599 -15.367,-0.019 0.435,-0.274 0.859,-0.561 1.28,-0.852 1.752,0.56 3.566,0.857 5.407,0.857 3.015,0 6.002,-0.773 8.639,-2.238 3.53,-1.961 6.768,-4.403 9.623,-7.259 L 37,42.401 c 0.167,0.258 0.277,0.551 0.308,0.866 0.056,0.586 -0.149,1.16 -0.565,1.576 z m 9.278,-19.677 c -0.629,0.943 -1.088,1.98 -1.363,3.084 -0.42,1.677 -0.392,3.423 0.076,5.078 -2.399,0.8 -4.506,2.237 -6.142,4.199 l -2.302,2.763 -0.004,-0.004 -7.802,7.803 c -2.724,2.724 -5.812,5.054 -9.18,6.925 -3.335,1.851 -7.31,2.405 -11.025,1.609 2.737,-2.175 5.157,-4.714 7.22,-7.602 l 3.569,-4.998 c 0.708,-0.99 1.761,-1.669 2.931,-1.917 v 0.48 C 22,43.917 23.083,45 24.414,45 c 0.636,0 1.258,-0.258 1.707,-0.707 L 31.414,39 29.435,37.021 c 1.07,-0.947 2.258,-1.75 3.542,-2.392 l 2.71,-1.356 -2.057,-2.057 c 3.788,-2.24 7.095,-5.297 9.649,-8.883 l 3.306,1.984 z m 2.342,-3.514 -0.666,1 -3.284,-1.971 0.012,-0.017 c 0.389,-0.583 0.724,-1.195 1.029,-1.82 l 3.262,1.631 c 0.128,0.064 0.264,0.109 0.393,0.169 -0.259,0.33 -0.514,0.661 -0.746,1.008 z m 10.93,-3.359 C 58.208,19.378 56.706,20 55.172,20 54.315,20 53.46,19.896 52.62,19.719 53.613,18.572 54.462,17.311 55.143,15.949 55.704,14.83 56,13.575 56,12.32 v -1.421 c 1.326,-0.27 2.459,-1.071 3.178,-2.166 1.177,1.562 1.822,3.449 1.822,5.439 0,1.534 -0.622,3.036 -1.707,4.121 z"
       id="path2"
       style="fill:#ffffff"
       inkscape:connector-curvature="0" /><rect
       x="54"
       y="5"
       width="2"
       height="2"
       id="rect4"
       style="fill:#ffffff" /></g></svg>