<?xml version="1.0" encoding="UTF-8" standalone="no"?>
<svg
   xmlns:dc="http://purl.org/dc/elements/1.1/"
   xmlns:cc="http://creativecommons.org/ns#"
   xmlns:rdf="http://www.w3.org/1999/02/22-rdf-syntax-ns#"
   xmlns:svg="http://www.w3.org/2000/svg"
   xmlns="http://www.w3.org/2000/svg"
   width="100"
   height="100"
   viewBox="0 0 26.458333 26.458334"
   version="1.1"
   id="svg8">
  <defs
     id="defs2" />
  <metadata
     id="metadata5">
    <rdf:RDF>
      <cc:Work
         rdf:about="">
        <dc:format>image/svg+xml</dc:format>
        <dc:type
           rdf:resource="http://purl.org/dc/dcmitype/StillImage" />
        <dc:title></dc:title>
      </cc:Work>
    </rdf:RDF>
  </metadata>
  <path
     id="path883"
     d="M 24.898953,24.412154 C 20.080884,19.557402 15.082102,14.530066 10.324242,9.7672476 l -0.05694,-0.2863618 -0.0247,-0.206529 C 10.060557,9.1699595 10.006182,9.1811235 9.0368892,8.3640529 L 9.4104697,7.9626873 C 10.120301,8.0448612 8.9610334,6.9409367 9.1192424,7.6563569 L 8.7514697,8.0190213 7.2448755,6.6030728 C 6.5162207,6.0691673 7.0664889,5.7142618 7.2760844,5.2973452 6.5292994,4.8108323 3.4909346,2.3109699 1.4870584,1.3229168 2.4474004,3.3400082 4.905285,6.4122871 5.3814746,7.1656351 5.8013115,6.9618629 6.1638484,6.4166342 6.6876615,7.1525453 L 8.0828032,8.6783987 7.7150315,9.0410611 C 7.0017931,8.8729609 8.0897088,10.047245 8.0173411,9.3364629 L 8.4238962,8.96853 c 0.8036841,0.9803792 0.7917667,1.034587 0.8936541,1.218033 l 0.206196,0.02755 0.2855848,0.06089 c 4.6703539,4.795228 9.5989349,9.832212 14.3617879,14.690624 0.470195,0.430724 0.994971,-0.03336 0.727834,-0.553476 z"
     style="fill:#000000;stroke:none;stroke-width:0.06197842px;stroke-linecap:butt;stroke-linejoin:miter;stroke-opacity:1" />
</svg>
