<?xml version="1.0" encoding="UTF-8" standalone="no"?>
<svg
   xmlns:dc="http://purl.org/dc/elements/1.1/"
   xmlns:cc="http://creativecommons.org/ns#"
   xmlns:rdf="http://www.w3.org/1999/02/22-rdf-syntax-ns#"
   xmlns:svg="http://www.w3.org/2000/svg"
   xmlns="http://www.w3.org/2000/svg"
   width="100"
   height="100"
   viewBox="0 0 26.458333 26.458334"
   version="1.1"
   id="svg8">
  <defs
     id="defs2" />
  <metadata
     id="metadata5">
    <rdf:RDF>
      <cc:Work
         rdf:about="">
        <dc:format>image/svg+xml</dc:format>
        <dc:type
           rdf:resource="http://purl.org/dc/dcmitype/StillImage" />
        <dc:title></dc:title>
      </cc:Work>
    </rdf:RDF>
  </metadata>
  <path
     id="path883"
     d="M 24.918234,24.541367 C 24.867034,24.489697 24.81577,24.437978 24.764459,24.386205 19.59533,19.170479 13.857727,13.38888 8.5042539,8.0290892 L 8.459043,7.8016714 8.4394317,7.6376537 C 8.2948738,7.5547453 8.2516972,7.5636113 7.482027,6.9147243 L 7.7786698,6.5959747 C 8.3423135,6.6612342 7.4217934,5.7845385 7.5474198,6.3526985 L 7.2553887,6.6407131 6.0590725,5.5162196 C 5.4804817,5.0922117 5.917424,4.810359 6.083854,4.4792594 5.4908669,4.092889 3.0782431,2.1075914 1.4870584,1.3229165 2.2496212,2.9248153 4.2013128,5.3647047 4.5794327,5.9629856 4.9128056,5.8011573 5.2006793,5.368157 5.6166148,5.9525901 L 6.7244318,7.164366 6.4324014,7.452379 C 5.8660521,7.3188801 6.7299152,8.2514528 6.6724514,7.6869761 L 6.9952778,7.3947775 c 0.6381681,0.7785806 0.628705,0.8216303 0.7096091,0.9673165 l 0.1637306,0.021881 0.2267696,0.048357 c 5.2650059,5.406525 10.9432959,11.200026 16.0715619,16.425298 0.0707,0.07204 0.141305,0.143977 0.211799,0.215802 0.478025,0.21965 0.703229,-0.188819 0.539476,-0.532055 z"
     style="fill:#000000;stroke:none;stroke-width:0.04921756px;stroke-linecap:butt;stroke-linejoin:miter;stroke-opacity:1" />
</svg>
